ply
format ascii 1.0
comment Created by Blender 2.69 (sub 0) - www.blender.org, source file: 'rarity_assembled.blend'
element vertex 156
property float x
property float y
property float z
property float nx
property float ny
property float nz
property float s
property float t
element face 240
property list uchar uint vertex_indices
end_header
0.429901 1.421604 2.636685 0.198401 -0.250191 0.947630 0.605749 0.182252
0.534461 1.302506 2.560375 0.376202 -0.353801 0.856288 0.644769 0.149472
0.628790 1.553643 2.567638 0.540086 -0.112827 0.833979 0.664019 0.225302
0.686723 1.192160 2.419451 0.538438 -0.427564 0.726096 0.706719 0.120952
0.799311 1.457090 2.416387 0.669332 -0.168737 0.723502 0.729389 0.201722
0.703086 0.944561 2.160689 0.168249 -0.984802 -0.042909 0.768969 0.037132
0.836048 1.148028 2.244471 0.673391 -0.480300 0.561998 0.774189 0.111732
0.937984 1.161269 2.103986 0.779870 -0.503006 0.372478 0.824469 0.118402
1.046318 1.335961 2.051339 0.889920 -0.318369 0.326579 0.853949 0.174092
0.950477 1.389114 2.231227 0.775170 -0.220161 0.592090 0.797199 0.186442
0.885150 1.770027 2.361110 0.726157 0.021943 0.687124 0.755629 0.294052
0.880655 1.032331 1.984542 0.350963 -0.831690 -0.430219 0.845799 0.072332
0.719840 1.111083 1.996680 -0.503159 -0.295206 -0.812189 0.843279 0.049002
0.479735 1.228308 2.235021 -0.711936 0.036378 -0.701285 0.104069 0.829262
0.719840 1.111083 1.996680 -0.503159 -0.295206 -0.812189 0.145499 0.829052
0.576296 1.018845 2.135015 -0.587054 -0.506149 -0.631764 0.126689 0.811352
0.849217 1.312093 1.886677 -0.483535 -0.150456 -0.862270 0.921349 0.120162
1.037912 1.244128 1.852140 0.535447 -0.556841 -0.634968 0.904289 0.142882
1.139429 1.604921 1.980784 0.953001 -0.132450 0.272469 0.883589 0.255212
1.140139 1.536220 1.756380 0.621021 -0.312326 -0.718863 0.943439 0.234692
0.368441 1.115211 2.509012 -0.353221 -0.698965 0.621784 0.610179 0.083102
0.525883 0.977240 2.349013 -0.066012 -0.930113 0.361248 0.684679 0.042852
0.439735 1.043519 2.277736 -0.736351 -0.527360 -0.423811 0.680649 0.028872
0.320485 1.149181 2.401143 -0.884579 -0.386731 -0.260628 0.610169 0.064712
0.252361 1.349278 2.484119 -0.954741 -0.126041 -0.269295 0.553119 0.133042
0.439735 1.043519 2.277736 -0.736351 -0.527360 -0.423811 0.104059 0.806592
0.320485 1.149181 2.401143 -0.884579 -0.386731 -0.260628 0.081479 0.811952
0.576296 1.018845 2.135015 -0.587054 -0.506149 -0.631764 0.759229 0.021642
0.269025 1.344051 2.621696 -0.620075 -0.350291 0.701956 0.563219 0.154372
0.463392 1.634073 2.661073 0.251473 -0.031434 0.967345 0.609599 0.245392
0.253801 1.643348 2.668578 -0.683676 0.029389 0.729179 0.550429 0.245972
0.701315 1.855016 2.523942 0.598285 0.076693 0.797571 0.686239 0.313872
0.517899 1.921913 2.628065 0.292367 0.176550 0.939848 0.626909 0.329972
0.578115 2.186465 2.522780 0.329447 0.365947 0.870327 0.656839 0.409822
0.927775 2.077292 2.260637 0.752892 0.202460 0.626179 0.781829 0.385032
0.750832 2.142268 2.419984 0.625477 0.254555 0.737510 0.713979 0.399562
1.073490 1.977875 2.084687 0.854823 0.141728 0.499161 0.846879 0.360852
0.628321 2.353378 2.409249 0.364208 0.564013 0.741081 0.686759 0.462892
0.927206 2.327800 2.140455 0.737571 0.475326 0.479568 0.804109 0.461912
0.761204 2.370003 2.298970 0.572100 0.537309 0.619648 0.736959 0.470472
0.297021 1.964651 2.631669 -0.652669 0.308390 0.692007 0.565539 0.344712
0.379751 2.253819 2.514452 -0.587420 0.571673 0.572771 0.604349 0.435912
0.505544 2.460757 2.347005 -0.387371 0.851009 0.354534 0.663479 0.505112
0.469000 2.374334 2.232032 -0.852840 0.318918 -0.413404 0.664439 0.528332
0.671954 2.546645 2.157609 -0.027772 0.992615 0.118046 0.740739 0.540222
0.697623 2.256286 1.982745 -0.734245 -0.065157 -0.675710 0.105059 0.955912
0.469000 2.374334 2.232032 -0.852840 0.318918 -0.413404 0.063759 0.956242
0.598585 2.464054 2.077770 -0.705741 0.471023 -0.529160 0.082739 0.973732
0.659250 2.025052 2.052704 -0.734764 -0.066012 -0.675069 0.104689 0.927352
0.937441 2.136216 1.745656 -0.440565 0.056398 -0.895932 0.146479 0.955232
0.854967 2.334257 1.812233 -0.434706 0.285318 -0.854152 0.127959 0.973202
0.937441 2.136216 1.745656 -0.440565 0.056398 -0.895932 0.957609 0.443102
0.854967 2.334257 1.812233 -0.434706 0.285318 -0.854152 0.900339 0.511892
1.007249 2.376192 1.809896 0.497085 0.697928 -0.515519 0.899569 0.493972
0.850041 2.514007 1.969751 0.292154 0.935789 -0.197211 0.825309 0.534832
0.598585 2.464054 2.077770 -0.705741 0.471023 -0.529160 0.749649 0.555742
0.733893 2.439564 1.932702 -0.542039 0.436842 -0.717856 0.829289 0.548602
0.365077 2.177406 2.370776 -0.911863 0.171667 -0.372814 0.586119 0.457462
1.119030 2.149467 1.711810 0.578478 0.337840 -0.742424 0.945929 0.422902
1.064007 2.215789 1.984472 0.863735 0.387097 0.322581 0.865379 0.433072
1.162897 1.888552 1.915147 0.974548 0.054415 0.217383 0.900619 0.338852
1.138699 2.093405 1.879147 0.950591 0.271065 0.151189 0.903679 0.399722
1.040982 1.681766 2.170203 0.828883 -0.034303 0.558336 0.824809 0.273522
1.165796 1.854909 1.700111 0.628529 -0.046297 -0.776391 0.958959 0.332742
0.965708 1.871932 1.746783 -0.472427 -0.076846 -0.877987 0.985989 0.341352
0.936493 1.581825 1.801472 -0.483383 -0.116031 -0.867672 0.972409 0.225412
-0.429911 1.421605 2.636685 -0.198401 -0.250191 0.947630 0.399079 0.182252
-0.534471 1.302508 2.560375 -0.376202 -0.353801 0.856288 0.360059 0.149472
-0.269035 1.344051 2.621696 0.620075 -0.350291 0.701956 0.441609 0.154372
-0.463402 1.634073 2.661073 -0.251473 -0.031434 0.967345 0.395239 0.245392
-0.253801 1.643348 2.668578 0.683676 0.029389 0.729148 0.454399 0.245972
-0.686733 1.192161 2.419451 -0.538438 -0.427564 0.726096 0.298109 0.120952
-0.368450 1.115212 2.509012 0.353252 -0.698965 0.621784 0.394659 0.083102
-0.628800 1.553645 2.567638 -0.540086 -0.112827 0.833979 0.340819 0.225302
-0.799321 1.457091 2.416387 -0.669332 -0.168706 0.723502 0.275439 0.201722
-0.836058 1.148029 2.244471 -0.673391 -0.480300 0.561968 0.230639 0.111732
-0.703096 0.944562 2.160689 -0.168249 -0.984802 -0.042909 0.235869 0.037132
-0.880665 1.032333 1.984541 -0.350963 -0.831660 -0.430250 0.159039 0.072332
-0.525893 0.977242 2.349013 0.066012 -0.930113 0.361248 0.320149 0.042852
-0.439745 1.043520 2.277736 0.736351 -0.527390 -0.423811 0.324179 0.028872
-0.576306 1.018846 2.135014 0.587054 -0.506149 -0.631764 0.245599 0.021642
-0.252371 1.349279 2.484119 0.954741 -0.126041 -0.269295 0.451709 0.133042
-0.249541 1.617562 2.511734 0.945677 0.040345 -0.322550 0.480749 0.235262
-0.479746 1.228309 2.235020 0.711936 0.036378 -0.701285 0.230099 0.829262
-0.252371 1.349279 2.484119 0.954741 -0.126041 -0.269295 0.271389 0.830122
-0.320495 1.149181 2.401143 0.884579 -0.386731 -0.260628 0.252689 0.811952
-0.297031 1.964653 2.631668 0.652669 0.308390 0.692007 0.439299 0.344712
-0.291978 1.909827 2.471960 0.930723 0.098666 -0.352092 0.468739 0.351932
-0.291978 1.909827 2.471960 0.930723 0.098666 -0.352092 0.286699 0.893652
-0.607567 1.745411 2.130570 0.726157 -0.021821 -0.687155 0.229839 0.892872
-0.365087 2.177407 2.370776 0.911863 0.171667 -0.372814 0.282419 0.927932
-0.365087 2.177407 2.370776 0.911863 0.171667 -0.372814 0.418709 0.457462
-0.379751 2.253819 2.514452 0.587451 0.571673 0.572771 0.400489 0.435912
-0.505554 2.460757 2.347005 0.387371 0.851009 0.354534 0.341349 0.505112
-0.578116 2.186455 2.522780 -0.329447 0.365947 0.870357 0.347989 0.409822
-0.965718 1.871933 1.746782 0.472427 -0.076815 -0.877987 0.176349 0.926642
-0.659260 2.025053 2.052704 0.734764 -0.066012 -0.675069 0.229489 0.927352
-0.249541 1.617562 2.511734 0.945677 0.040345 -0.322550 0.282999 0.859102
-0.542803 1.463627 2.193508 0.712333 0.036042 -0.700888 0.230049 0.858212
-0.849227 1.312094 1.886677 0.483566 -0.150456 -0.862270 0.176909 0.857752
-0.701325 1.855017 2.523942 -0.598285 0.076693 0.797571 0.318589 0.313872
-0.885160 1.770028 2.361109 -0.726188 0.021943 0.687124 0.249209 0.294052
-0.937984 1.161269 2.103986 -0.779900 -0.502976 0.372448 0.180369 0.118402
-1.046327 1.335963 2.051339 -0.889920 -0.318400 0.326579 0.150879 0.174092
-1.037912 1.244128 1.852140 -0.535447 -0.556841 -0.634968 0.100549 0.142882
-0.950487 1.389115 2.231227 -0.775170 -0.220161 0.592090 0.207639 0.186442
-1.040982 1.681766 2.170203 -0.828883 -0.034303 0.558336 0.180029 0.273522
-0.719850 1.111084 1.996680 0.503159 -0.295206 -0.812189 0.161559 0.049002
-0.576306 1.018846 2.135014 0.587054 -0.506149 -0.631764 0.207489 0.811352
-0.719850 1.111084 1.996680 0.503159 -0.295206 -0.812189 0.188669 0.829052
-0.849227 1.312094 1.886677 0.483566 -0.150456 -0.862270 0.083489 0.120162
-1.140139 1.536220 1.756380 -0.620991 -0.312326 -0.718863 0.061389 0.234692
-1.162907 1.888553 1.915147 -0.974548 0.054415 0.217383 0.104209 0.338852
-1.139439 1.604921 1.980784 -0.952971 -0.132450 0.272469 0.121249 0.255212
-1.165806 1.854910 1.700111 -0.628529 -0.046297 -0.776391 0.045869 0.332742
-0.965718 1.871933 1.746782 0.472427 -0.076815 -0.877987 0.018849 0.341352
-0.936494 1.581825 1.801472 0.483383 -0.116031 -0.867672 0.032419 0.225412
-1.119030 2.149467 1.711810 -0.578448 0.337840 -0.742424 0.058899 0.422902
-1.138708 2.093406 1.879146 -0.950591 0.271065 0.151158 0.101149 0.399722
-0.927785 2.077294 2.260637 -0.752892 0.202490 0.626179 0.222999 0.385032
-1.073500 1.977876 2.084687 -0.854823 0.141728 0.499161 0.157949 0.360852
-1.064017 2.215790 1.984472 -0.863735 0.387127 0.322581 0.139459 0.433072
-0.927206 2.327800 2.140455 -0.737571 0.475356 0.479568 0.200719 0.461912
-0.761214 2.370003 2.298970 -0.572100 0.537309 0.619648 0.267869 0.470472
-0.750841 2.142270 2.419983 -0.625446 0.254555 0.737541 0.290859 0.399562
-0.628331 2.353379 2.409249 -0.364208 0.563982 0.741081 0.318079 0.462892
-0.598585 2.464054 2.077770 0.705741 0.470992 -0.529160 0.255189 0.555742
-0.671954 2.546645 2.157598 0.027802 0.992615 0.118015 0.264089 0.540222
-0.469010 2.374335 2.232032 0.852840 0.318918 -0.413404 0.340389 0.528332
-0.733903 2.439565 1.932701 0.542039 0.436811 -0.717856 0.175539 0.548602
-1.007249 2.376192 1.809896 -0.497085 0.697928 -0.515519 0.105269 0.493972
-0.517909 1.921914 2.628065 -0.292367 0.176550 0.939848 0.377919 0.329972
-0.854968 2.334257 1.812242 0.434736 0.285318 -0.854122 0.206229 0.973202
-0.733903 2.439565 1.932701 0.542039 0.436811 -0.717856 0.228759 0.978472
-0.697633 2.256287 1.982745 0.734245 -0.065157 -0.675741 0.229129 0.955912
-0.937451 2.136217 1.745656 0.440596 0.056398 -0.895901 0.187689 0.955232
-0.469010 2.374335 2.232032 0.852840 0.318918 -0.413404 0.270419 0.956242
-0.854968 2.334257 1.812242 0.434736 0.285318 -0.854122 0.104499 0.511892
-0.937451 2.136217 1.745656 0.440596 0.056398 -0.895901 0.047229 0.443102
-0.850051 2.514008 1.969751 -0.292154 0.935789 -0.197211 0.179519 0.534832
-0.598585 2.464054 2.077770 0.705741 0.470992 -0.529160 0.251429 0.973732
0.249531 1.617561 2.511725 -0.945677 0.040376 -0.322520 0.524079 0.235262
0.252361 1.349278 2.484119 -0.954741 -0.126041 -0.269295 0.062769 0.830122
0.542793 1.463627 2.193508 -0.712333 0.036073 -0.700888 0.104119 0.858212
0.965708 1.871932 1.746783 -0.472427 -0.076846 -0.877987 0.157829 0.926642
0.936493 1.581825 1.801472 -0.483383 -0.116031 -0.867672 0.161389 0.892232
0.607566 1.745411 2.130570 -0.726157 -0.021821 -0.687155 0.104339 0.892872
0.291968 1.909827 2.471960 -0.930723 0.098636 -0.352092 0.047479 0.893652
0.249531 1.617561 2.511725 -0.945677 0.040376 -0.322520 0.051179 0.859102
0.849217 1.312093 1.886677 -0.483535 -0.150456 -0.862270 0.157269 0.857752
0.291968 1.909827 2.471960 -0.930723 0.098636 -0.352092 0.536099 0.351932
0.365077 2.177406 2.370776 -0.911863 0.171667 -0.372814 0.051749 0.927932
0.733893 2.439564 1.932702 -0.542039 0.436842 -0.717856 0.105409 0.978472
-0.320495 1.149181 2.401143 0.884579 -0.386731 -0.260628 0.394669 0.064712
-0.439745 1.043520 2.277736 0.736351 -0.527390 -0.423811 0.230119 0.806592
-0.936494 1.581825 1.801472 0.483383 -0.116031 -0.867672 0.172779 0.892232
3 0 1 2
3 3 4 1
3 5 6 3
3 3 6 4
3 7 8 9
3 2 4 10
3 10 4 9
3 5 11 6
3 12 11 5
3 13 14 15
3 11 12 16
3 8 7 17
3 18 8 19
3 20 21 3
3 22 21 20
3 23 20 24
3 13 25 26
3 5 21 27
3 0 28 1
3 0 29 30
3 2 31 29
3 32 31 33
3 34 35 10
3 36 34 10
3 33 35 37
3 38 39 34
3 30 29 40
3 32 33 40
3 33 37 41
3 37 39 42
3 43 42 44
3 45 46 47
3 46 45 48
3 45 49 48
3 50 49 45
3 51 52 53
3 53 52 54
3 55 44 56
3 40 41 57
3 43 57 42
3 44 39 38
3 53 54 38
3 58 53 59
3 60 61 36
3 38 34 59
3 36 62 60
3 8 18 62
3 63 60 18
3 63 64 58
3 64 63 65
3 58 61 63
3 66 67 68
3 69 66 70
3 67 71 72
3 73 74 67
3 71 75 76
3 76 75 77
3 78 79 72
3 79 78 80
3 81 68 72
3 68 81 82
3 83 84 85
3 69 70 86
3 70 82 87
3 88 89 90
3 87 91 86
3 92 91 93
3 86 92 94
3 95 96 89
3 89 88 97
3 89 98 99
3 98 97 84
3 73 67 66
3 100 73 69
3 101 74 73
3 102 103 104
3 103 102 105
3 105 75 74
3 101 106 105
3 76 77 107
3 108 109 83
3 98 83 109
3 104 110 77
3 111 104 103
3 112 113 106
3 114 111 113
3 115 116 114
3 115 114 117
3 117 114 118
3 119 120 101
3 121 118 120
3 120 119 121
3 122 119 123
3 100 124 101
3 106 113 103
3 125 94 92
3 123 125 93
3 126 127 128
3 127 126 129
3 122 123 127
3 121 122 130
3 123 124 125
3 100 131 94
3 132 133 134
3 95 135 96
3 136 90 96
3 130 137 138
3 129 137 139
3 134 133 140
3 121 130 117
3 24 28 141
3 13 142 143
3 13 143 14
3 19 17 65
3 144 145 146
3 147 146 148
3 145 149 146
3 150 141 30
3 146 147 151
3 116 110 104
3 29 0 2
3 4 2 1
3 21 5 3
3 6 9 4
3 6 7 9
3 31 2 10
3 62 10 9
3 11 7 6
3 27 12 5
3 25 13 15
3 17 11 16
3 7 11 17
3 8 17 19
3 1 20 3
3 23 22 20
3 20 28 24
3 142 13 26
3 21 22 27
3 28 20 1
3 28 0 30
3 31 32 29
3 31 35 33
3 35 31 10
3 62 36 10
3 35 39 37
3 39 35 34
3 29 32 40
3 33 41 40
3 37 42 41
3 39 44 42
3 55 43 44
3 152 45 47
3 151 46 48
3 49 144 48
3 152 50 45
3 58 51 53
3 52 56 54
3 44 54 56
3 150 40 57
3 57 41 42
3 54 44 38
3 59 53 38
3 61 58 59
3 61 59 36
3 34 36 59
3 62 18 60
3 9 8 62
3 19 63 18
3 64 51 58
3 63 19 65
3 61 60 63
3 67 72 68
3 66 68 70
3 71 78 72
3 74 71 67
3 78 71 76
3 75 102 77
3 79 153 72
3 78 76 80
3 153 81 72
3 70 68 82
3 154 83 85
3 131 69 86
3 86 70 87
3 89 96 90
3 91 92 86
3 91 128 93
3 131 86 94
3 155 95 89
3 98 89 97
3 155 89 99
3 83 98 84
3 69 73 66
3 131 100 69
3 100 101 73
3 77 102 104
3 102 75 105
3 75 71 74
3 74 101 105
3 80 76 107
3 154 108 83
3 99 98 109
3 110 107 77
3 113 111 103
3 120 112 106
3 112 114 113
3 116 111 114
3 138 115 117
3 114 112 118
3 120 106 101
3 118 112 120
3 119 122 121
3 119 124 123
3 124 119 101
3 105 106 103
3 93 125 92
3 127 123 93
3 127 93 128
3 139 127 129
3 139 122 127
3 122 139 130
3 124 94 125
3 124 100 94
3 135 132 134
3 135 134 96
3 134 136 96
3 117 130 138
3 137 130 139
3 136 134 140
3 118 121 117
3 28 30 141
3 142 148 143
3 143 149 14
3 17 16 65
3 48 144 146
3 146 143 148
3 149 143 146
3 40 150 30
3 48 146 151
3 111 116 104
