ply
format ascii 1.0
comment Created by Blender 2.69 (sub 0) - www.blender.org, source file: 'rarity_assembled.blend'
element vertex 86
property float x
property float y
property float z
property float nx
property float ny
property float nz
property float s
property float t
element face 124
property list uchar uint vertex_indices
end_header
0.305376 3.070365 2.354780 0.822413 -0.010010 -0.568773 0.418827 0.989447
0.187283 3.102863 2.244431 0.433271 -0.025910 -0.900876 0.496877 0.989447
0.157512 3.406373 2.475941 0.503189 0.600177 -0.621693 0.496877 0.825317
0.006756 3.135475 2.199830 0.008484 0.046785 -0.998840 0.575777 0.989447
-0.187385 3.102844 2.244384 -0.426740 -0.022553 -0.904080 0.657147 0.989447
-0.157781 3.406377 2.475943 -0.499161 0.600574 -0.624561 0.657147 0.825307
-0.305443 3.070371 2.354810 -0.822687 -0.009980 -0.568377 0.735957 0.989447
-0.338883 2.935323 2.472602 -0.861354 -0.410138 -0.299722 0.816447 0.989447
-0.311964 3.244406 2.698698 -0.991638 0.098086 0.083590 0.816447 0.825317
-0.305493 2.862788 2.637476 -0.824244 -0.542131 0.163213 0.895877 0.989447
-0.187636 2.765534 2.703007 -0.432936 -0.865108 0.253182 0.981947 0.989447
-0.155529 3.084958 2.916358 -0.498093 -0.402264 0.768151 0.981947 0.825317
-0.187636 2.765534 2.703007 -0.432936 -0.865108 0.253182 0.020077 0.989447
0.004991 2.731679 2.747765 0.006195 -0.936827 0.349651 0.106327 0.989447
-0.155529 3.084958 2.916358 -0.498093 -0.402264 0.768151 0.020077 0.825317
0.187575 2.765525 2.703017 0.437971 -0.863491 0.250038 0.183977 0.989447
0.155371 3.084963 2.916353 0.500626 -0.400433 0.767449 0.183977 0.825317
0.305502 2.862790 2.637475 0.824152 -0.542283 0.163213 0.261457 0.989447
0.338860 2.935310 2.472591 0.861171 -0.410321 -0.299966 0.340037 0.989447
0.311969 3.244408 2.698699 0.991638 0.098056 0.083529 0.340037 0.825317
0.271932 3.337277 2.572086 0.864956 0.392590 -0.312510 0.418827 0.825317
0.123312 3.721534 2.783885 0.485549 0.648885 -0.585772 0.496877 0.638877
0.002736 3.432792 2.439519 0.004120 0.674154 -0.738548 0.575777 0.825317
0.000815 3.738655 2.756740 0.001648 0.726615 -0.687002 0.575777 0.638877
-0.271915 3.337274 2.572085 -0.865200 0.392407 -0.312052 0.735957 0.825307
-0.123437 3.721534 2.783885 -0.484634 0.649556 -0.585803 0.657167 0.638877
-0.244238 3.594999 2.955120 -0.984161 0.127934 0.122532 0.816447 0.638877
-0.268763 3.153700 2.824246 -0.856136 -0.179662 0.484481 0.895877 0.825317
-0.209576 3.520669 3.048802 -0.842280 -0.156896 0.515641 0.895887 0.638877
-0.121202 3.468015 3.117636 -0.482833 -0.357189 0.799524 0.981947 0.638877
0.001477 3.058105 2.952897 0.001953 -0.486129 0.873867 0.106327 0.825317
0.000791 3.447380 3.141835 0.001648 -0.430006 0.902799 0.106327 0.638877
0.268775 3.153701 2.824247 0.855953 -0.179846 0.484725 0.261457 0.825317
0.121068 3.468016 3.117635 0.483993 -0.356853 0.798975 0.183977 0.638877
0.209583 3.520667 3.048804 0.842067 -0.157109 0.515946 0.261507 0.638877
0.244242 3.594999 2.955120 0.984161 0.127903 0.122532 0.340037 0.638877
0.213512 3.669775 2.856098 0.855831 0.428785 -0.289193 0.418867 0.638877
0.152855 3.928545 3.089018 0.846950 0.468795 -0.250710 0.418827 0.485767
0.000609 3.973088 3.014383 0.001709 0.754723 -0.655995 0.575777 0.485767
-0.213503 3.669774 2.856098 -0.855770 0.429121 -0.288858 0.735977 0.638877
-0.087831 3.965757 3.038453 -0.472396 0.688406 -0.550340 0.657197 0.485767
-0.173201 3.876628 3.159357 -0.971282 0.172765 0.163488 0.816447 0.485767
-0.150266 3.817146 3.222606 -0.823786 -0.118961 0.554247 0.895877 0.485767
-0.085683 3.776567 3.267793 -0.464156 -0.321238 0.825434 0.981947 0.485767
-0.121202 3.468015 3.117636 -0.482833 -0.357189 0.799524 0.020077 0.638877
0.000734 3.757187 3.282653 0.002136 -0.397656 0.917508 0.106327 0.485767
0.085520 3.776566 3.267792 0.465560 -0.320872 0.824763 0.183977 0.485767
0.150299 3.817145 3.222606 0.823420 -0.119205 0.554735 0.261457 0.485767
0.173223 3.876628 3.159357 0.971252 0.172857 0.163549 0.340037 0.485767
0.087710 3.965755 3.038453 0.472915 0.688650 -0.549608 0.496877 0.485767
0.107220 4.068160 3.222871 0.783685 0.617725 -0.064943 0.418827 0.388287
0.000427 4.101768 3.171360 0.002319 0.868007 -0.496506 0.575777 0.388287
-0.152825 3.928545 3.089019 -0.847102 0.468245 -0.251259 0.736007 0.485767
-0.107253 4.068156 3.222867 -0.784204 0.617084 -0.064943 0.735957 0.388287
-0.104509 3.985665 3.313235 -0.771020 0.046205 0.635121 0.895877 0.388287
-0.085683 3.776567 3.267793 -0.464156 -0.321238 0.825434 0.020077 0.485767
0.000658 3.948282 3.360723 0.003723 -0.196966 0.980377 0.106327 0.388287
0.104480 3.985667 3.313233 0.770348 0.046327 0.635884 0.261457 0.388287
0.192560 2.873417 2.423439 0.245338 -0.779687 -0.576067 0.223827 0.164977
0.338860 2.935310 2.472591 0.861171 -0.410321 -0.299966 0.282327 0.163697
0.305502 2.862790 2.637475 0.824152 -0.542283 0.163213 0.274387 0.097507
0.000256 4.137659 3.351510 0.001617 0.776605 0.629963 0.577537 0.342027
0.053213 4.111886 3.218084 0.412275 0.886990 -0.207862 0.496877 0.388287
-0.053402 4.111876 3.218074 -0.412580 0.886868 -0.207923 0.657147 0.388287
0.000256 4.137659 3.351510 0.001617 0.776605 0.629963 0.736337 0.341667
-0.104682 4.051053 3.286520 -0.816614 0.425336 0.390118 0.816447 0.388287
0.000256 4.137659 3.351510 0.001617 0.776605 0.629963 0.899237 0.340187
-0.052800 3.994320 3.354250 -0.406507 0.014924 0.913511 0.981947 0.388287
0.000256 4.137659 3.351510 0.001617 0.776605 0.629963 0.099527 0.339407
-0.052800 3.994320 3.354250 -0.406507 0.014924 0.913511 0.020077 0.388287
0.052577 3.994337 3.354257 0.406354 0.015595 0.913572 0.183977 0.388287
0.000256 4.137659 3.351510 0.001617 0.776605 0.629963 0.264997 0.340647
0.104623 4.051060 3.286526 0.816889 0.424970 0.389935 0.340037 0.388287
0.000256 4.137659 3.351510 0.001617 0.776605 0.629963 0.419057 0.342027
0.006541 2.876710 2.419548 0.000153 -0.799951 -0.600024 0.159407 0.168367
0.004991 2.731679 2.747765 0.006195 -0.936827 0.349651 0.158557 0.032327
-0.187636 2.765534 2.703007 -0.432936 -0.865108 0.253182 0.088187 0.056947
-0.192747 2.873403 2.423439 -0.245674 -0.779565 -0.576067 0.089617 0.164927
-0.305493 2.862788 2.637476 -0.824244 -0.542131 0.163213 0.039167 0.097407
0.187575 2.765525 2.703017 0.437971 -0.863491 0.250038 0.225427 0.056987
-0.187385 3.102844 2.244384 -0.426740 -0.022553 -0.904080 0.087907 0.268907
-0.305443 3.070371 2.354810 -0.822687 -0.009980 -0.568377 0.039137 0.230087
0.006756 3.135475 2.199830 0.008484 0.046785 -0.998840 0.159777 0.291787
0.187283 3.102863 2.244431 0.433271 -0.025910 -0.900876 0.225597 0.268957
0.305376 3.070365 2.354780 0.822413 -0.010010 -0.568773 0.274347 0.230137
-0.338883 2.935323 2.472602 -0.861354 -0.410138 -0.299722 0.031137 0.163617
3 0 1 2
3 1 3 2
3 3 4 5
3 4 6 5
3 6 7 8
3 7 9 8
3 9 10 11
3 12 13 14
3 13 15 16
3 15 17 16
3 17 18 19
3 18 0 19
3 20 2 21
3 2 22 23
3 22 5 23
3 5 24 25
3 24 8 26
3 8 27 28
3 27 11 29
3 14 30 31
3 30 16 31
3 16 32 33
3 32 19 34
3 19 20 35
3 36 21 37
3 21 23 38
3 23 25 38
3 25 39 40
3 39 26 41
3 26 28 42
3 28 29 43
3 44 31 45
3 31 33 45
3 33 34 46
3 34 35 47
3 35 36 48
3 37 49 50
3 49 38 51
3 38 40 51
3 40 52 53
3 52 41 53
3 41 42 54
3 42 43 54
3 55 45 56
3 45 46 56
3 46 47 57
3 47 48 57
3 48 37 50
3 58 59 60
3 61 62 63
3 64 63 65
3 66 65 67
3 68 69 70
3 71 70 72
3 73 72 62
3 74 75 76
3 77 76 78
3 58 79 74
3 80 77 81
3 82 74 80
3 83 58 74
3 84 59 58
3 20 0 2
3 3 22 2
3 22 3 5
3 6 24 5
3 24 6 8
3 9 27 8
3 27 9 11
3 13 30 14
3 30 13 16
3 17 32 16
3 32 17 19
3 0 20 19
3 36 20 21
3 21 2 23
3 5 25 23
3 24 39 25
3 39 24 26
3 26 8 28
3 28 27 29
3 44 14 31
3 16 33 31
3 32 34 33
3 19 35 34
3 20 36 35
3 49 21 38
3 25 40 38
3 39 52 40
3 52 39 41
3 41 26 42
3 42 28 43
3 55 44 45
3 33 46 45
3 34 47 46
3 35 48 47
3 36 37 48
3 49 62 50
3 62 49 51
3 40 63 51
3 63 40 53
3 41 65 53
3 65 41 54
3 43 67 54
3 69 55 56
3 46 70 56
3 70 46 57
3 48 72 57
3 72 48 50
3 79 58 60
3 62 51 63
3 63 53 65
3 65 54 67
3 69 56 70
3 70 57 72
3 72 50 62
3 77 74 76
3 85 77 78
3 79 75 74
3 77 85 81
3 74 77 80
3 82 83 74
3 83 84 58
3 21 49 37
