ply
format ascii 1.0
comment Created by Blender 2.69 (sub 0) - www.blender.org, source file: 'bulb.blend'
element vertex 74
property float x
property float y
property float z
property uchar red
property uchar green
property uchar blue
element face 128
property list uchar uint vertex_indices
end_header
-0.587785 -0.009017 0.000000 255 255 255
-0.951056 0.490983 0.000000 255 255 255
-0.672498 0.490983 -0.672499 255 255 255
-0.951057 1.109017 0.000000 255 255 255
-0.672498 1.109017 -0.672499 255 255 255
-0.587785 1.609017 0.000000 255 255 255
-0.415627 1.609017 -0.415627 255 255 255
-0.415627 -0.009017 -0.415627 255 255 255
0.000000 0.490983 -0.951057 255 255 255
0.000000 1.109017 -0.951057 255 255 255
0.000000 1.609017 -0.587785 255 255 255
0.000000 -0.009017 -0.587785 255 255 255
0.672499 0.490983 -0.672499 255 255 255
0.415627 1.609017 -0.415627 255 255 255
0.415627 -0.009017 -0.415627 255 255 255
0.951057 0.490983 0.000000 255 255 255
0.672499 1.109017 -0.672499 255 255 255
0.951057 1.109017 0.000000 255 255 255
0.587785 1.609017 0.000000 255 255 255
0.672499 1.109017 0.672499 255 255 255
0.415627 1.609017 0.415627 255 255 255
0.587785 -0.009017 0.000000 255 255 255
0.415627 -0.009017 0.415627 255 255 255
-0.000000 1.609017 0.587785 255 255 255
0.672499 0.490983 0.672499 255 255 255
-0.000000 0.490983 0.951057 255 255 255
-0.000000 1.109017 0.951057 255 255 255
-0.000000 -0.009017 0.587785 255 255 255
-0.672499 0.490983 0.672498 255 255 255
-0.672499 1.109017 0.672498 255 255 255
-0.415627 1.609017 0.415627 255 255 255
0.000000 1.800000 0.000000 255 255 255
-0.415627 -0.009017 0.415627 255 255 255
-0.352671 -0.609017 0.000000 255 255 255
-0.249376 -0.609017 -0.249376 255 255 255
0.249376 -0.609017 -0.249376 255 255 255
0.000000 -0.609017 -0.352671 255 255 255
0.249376 -0.609017 0.249376 255 255 255
-0.000000 -0.609017 0.352671 255 255 255
-0.249376 -0.609017 0.249376 255 255 255
0.299251 -0.998660 0.299251 128 128 128
-0.000000 -0.998660 0.423205 128 128 128
0.249376 -1.198659 0.249376 128 128 128
-0.299251 -0.998660 -0.299251 128 128 128
0.000000 -0.998660 -0.423205 128 128 128
0.000000 -1.198659 -0.352671 128 128 128
-0.299252 -0.998660 0.299251 128 128 128
-0.423205 -0.998660 -0.000000 128 128 128
-0.352671 -1.198659 -0.000000 128 128 128
0.423206 -0.998660 0.000000 128 128 128
0.299252 -0.998660 -0.299251 128 128 128
0.352671 -1.198659 0.000000 128 128 128
0.249376 -1.198659 -0.249376 128 128 128
-0.000000 -1.198659 0.352671 128 128 128
0.000000 -1.389642 -0.000000 128 128 128
-0.249376 -1.198659 0.249376 128 128 128
-0.249376 -1.198659 -0.249376 128 128 128
0.000000 -0.798660 -0.423205 128 128 128
0.299252 -0.798660 -0.299251 128 128 128
-0.423205 -0.798660 -0.000000 128 128 128
0.423206 -0.798660 0.000000 128 128 128
-0.299252 -0.798660 0.299251 128 128 128
-0.299251 -0.798660 -0.299251 128 128 128
0.299251 -0.798660 0.299251 128 128 128
-0.249376 -0.609017 0.249376 128 128 128
-0.000000 -0.798660 0.423205 128 128 128
-0.000000 -0.609017 0.352671 128 128 128
0.249376 -0.609017 0.249376 128 128 128
0.352671 -0.609017 0.000000 128 128 128
0.249376 -0.609017 -0.249376 128 128 128
0.000000 -0.609017 -0.352671 128 128 128
-0.249376 -0.609017 -0.249376 128 128 128
-0.352671 -0.609017 0.000000 128 128 128
0.352671 -0.609017 0.000000 255 255 255
3 0 1 2
3 1 3 4
3 3 5 6
3 7 2 8
3 2 4 9
3 4 6 10
3 11 8 12
3 8 9 12
3 9 10 13
3 14 12 15
3 12 16 17
3 16 13 18
3 15 17 19
3 17 18 20
3 21 15 22
3 19 20 23
3 22 24 25
3 24 19 26
3 27 25 28
3 25 26 29
3 26 23 30
3 5 31 6
3 32 0 33
3 6 31 10
3 0 7 34
3 11 14 35
3 10 31 13
3 13 31 18
3 14 21 35
3 18 31 20
3 7 11 36
3 20 31 23
3 21 22 37
3 23 31 30
3 22 27 38
3 27 32 39
3 32 28 1
3 28 29 1
3 30 5 29
3 31 5 30
3 40 41 42
3 43 44 45
3 46 47 48
3 49 40 42
3 47 43 48
3 50 49 51
3 44 50 52
3 41 46 53
3 54 55 48
3 54 53 55
3 54 42 53
3 54 51 42
3 54 52 51
3 54 45 52
3 54 56 45
3 54 48 56
3 50 44 57
3 49 50 58
3 43 47 59
3 40 49 60
3 47 46 61
3 44 43 62
3 41 40 63
3 46 41 61
3 64 61 65
3 66 65 63
3 67 63 68
3 69 68 60
3 69 58 70
3 70 57 71
3 71 62 59
3 72 59 61
3 7 0 2
3 2 1 4
3 4 3 6
3 11 7 8
3 8 2 9
3 9 4 10
3 14 11 12
3 15 24 22
3 16 9 13
3 21 14 15
3 15 12 17
3 17 16 18
3 24 15 19
3 19 17 20
3 41 65 61
3 26 19 23
3 27 22 25
3 25 24 26
3 32 27 28
3 28 25 29
3 29 26 30
3 39 32 33
3 33 0 34
3 36 11 35
3 9 16 12
3 34 7 36
3 73 21 37
3 37 22 38
3 38 27 39
3 0 32 1
3 21 73 35
3 29 5 3
3 56 43 45
3 55 46 48
3 51 49 42
3 57 62 71
3 52 50 51
3 45 44 52
3 43 56 48
3 58 50 57
3 60 49 58
3 62 43 59
3 63 40 60
3 59 47 61
3 57 44 62
3 65 41 63
3 46 55 53
3 66 64 65
3 67 66 63
3 41 53 42
3 58 69 60
3 63 60 68
3 58 57 70
3 72 71 59
3 64 72 61
3 29 3 1
